HIERARCHY
ROOT Hips
{
  OFFSET 2.26061 22.2878 23.7974
  CHANNELS 6 Xposition Yposition Zposition Zrotation Xrotation Yrotation
  JOINT LeftUpLeg
  {
    OFFSET 8.64259 1.95398 -2.38835
    CHANNELS 3 Zrotation Xrotation Yrotation
    JOINT LeftLeg
    {
      OFFSET 43.7702 0 0
      CHANNELS 3 Zrotation Xrotation Yrotation
      JOINT LeftFoot
      {
        OFFSET 40.6238 0 0
        CHANNELS 3 Zrotation Xrotation Yrotation
        JOINT LeftToeBase
        {
          OFFSET 12.7242 0 0
          CHANNELS 3 Zrotation Xrotation Yrotation
          End Site
          {
            OFFSET 0 0 0
          }
        }
      }
    }
  }
  JOINT RightUpLeg
  {
    OFFSET -8.2249 1.95398 -2.59336
    CHANNELS 3 Zrotation Xrotation Yrotation
    JOINT RightLeg
    {
      OFFSET 43.5653 0 0
      CHANNELS 3 Zrotation Xrotation Yrotation
      JOINT RightFoot
      {
        OFFSET 40.6238 0 0
        CHANNELS 3 Zrotation Xrotation Yrotation
        JOINT RightToeBase
        {
          OFFSET 12.7242 0 0
          CHANNELS 3 Zrotation Xrotation Yrotation
          End Site
          {
            OFFSET 0 0 0
          }
        }
      }
    }
  }
  JOINT Spine
  {
    OFFSET 0.165834 0.87714 6.61349
    CHANNELS 3 Zrotation Xrotation Yrotation
    JOINT Spine1
    {
      OFFSET 7.38963 1.71661e-005 0
      CHANNELS 3 Zrotation Xrotation Yrotation
      JOINT Spine2
      {
        OFFSET 11.9445 1.14441e-005 0
        CHANNELS 3 Zrotation Xrotation Yrotation
        JOINT Spine3
        {
          OFFSET 14.7254 4.19617e-005 0
          CHANNELS 3 Zrotation Xrotation Yrotation
          JOINT Spine4
          {
            OFFSET 10.9679 0 0
            CHANNELS 3 Zrotation Xrotation Yrotation
            JOINT RightShoulder
            {
              OFFSET 2.46616 -1.6653 3.69651
              CHANNELS 3 Zrotation Xrotation Yrotation
              JOINT RightArm
              {
                OFFSET 13.0012 0 0
                CHANNELS 3 Zrotation Xrotation Yrotation
                JOINT RightForeArm
                {
                  OFFSET 28.7848 1.52588e-005 0
                  CHANNELS 3 Zrotation Xrotation Yrotation
                  JOINT RightHand
                  {
                    OFFSET 26.5688 1.52588e-005 0
                    CHANNELS 3 Zrotation Xrotation Yrotation
                    End Site
                    {
                      OFFSET 0 0 0
                    }
                  }
                }
              }
            }
            JOINT LeftShoulder
            {
              OFFSET 2.38034 -1.29275 -3.7523
              CHANNELS 3 Zrotation Xrotation Yrotation
              JOINT LeftArm
              {
                OFFSET 16.3182 6.10351e-005 0
                CHANNELS 3 Zrotation Xrotation Yrotation
                JOINT LeftForeArm
                {
                  OFFSET 27.0901 0 0
                  CHANNELS 3 Zrotation Xrotation Yrotation
                  JOINT LeftHand
                  {
                    OFFSET 24.5451 1.52588e-005 0
                    CHANNELS 3 Zrotation Xrotation Yrotation
                    End Site
                    {
                      OFFSET 0 0 0
                    }
                  }
                }
              }
            }
            JOINT Neck
            {
              OFFSET 5.0226 -0.0266342 0
              CHANNELS 3 Zrotation Xrotation Yrotation
              JOINT Head
              {
                OFFSET 6.69363 2.86102e-005 0
                CHANNELS 3 Zrotation Xrotation Yrotation
                End Site
                {
                  OFFSET 0 0 0
                }
              }
            }
          }
        }
      }
    }
  }
}
MOTION
Frames:	7
Frame Time:	0.0416667
-294.099 88.8195 -294.548 70.7372 -49.5585 69.4348 -167.058 50.5987 85.7576 -62.6881 -78.8895 -0.505616 69.4365 0.503578 -117.285 17.7375 -21.9742 36.4948 112.615 34.1455 134.823 0.69823 -3.74763 10.8894 2.02248 11.8071 29.2704 -1.40789 4.70275 -18.4243 1.32143 4.50202 -90.8043 17.8907 2.17794 -2.04002 6.21984 2.08608 -2.13389 -16.3239 2.69026 -1.29101 3.68879 2.69028 -1.29103 137.867 -60.7549 -34.337 -7.92363 -45.6473 18.0029 -160.638 -29.5696 -47.669 -8.76031 0.50221 90.8835 -102.885 -71.7731 67.3455 -39.9265 18.8453 71.8624 7.82097 7.36579 -62.7406 26.5261 0.735825 -1.16371 -27.1925 -8.65876 41.3272 12.3247 -7.45743 -28.4486 
-289.837 90.3106 -289.315 66.3485 -51.9762 64.8622 -163.356 48.1962 83.6654 -67.2553 -33.873 -0.977905 67.8107 -6.68083 -62.4902 25.1978 -8.02625 25.5286 90.8043 14.2336 127.907 2.65623 -25.5134 39.2431 1.67027 15.9332 22.8628 -2.74851 5.91013 -21.3365 1.12619 5.76911 -90.2756 15.3441 2.08642 -0.892153 3.67445 2.04515 -0.983152 -18.8736 2.25806 -0.223567 1.13908 2.25805 -0.223566 101.419 -60.8695 -82.8709 9.17268 -27.6253 20.1611 -166.503 -28.6185 -52.9618 -8.73476 2.76859 94.8549 -101.061 -67.6929 68.3145 -37.9388 15.5449 62.7309 8.86581 3.5457 -67.8512 22.8111 1.246 1.58144 -23.2226 -5.97374 28.5887 23.0478 -6.8913 -15.8033 
-284.955 91.6326 -283.099 60.4815 -49.5083 64.5948 -163.638 55.1229 84.4006 -60.4291 21.5372 -2.6403 49.7624 -3.19609 9.00143 45.5077 15.3973 14.7556 64.6386 5.09343 120.129 -1.02001 -50.3874 57.8681 7.35421 17.2746 20.049 -2.42749 6.50416 -23.2037 1.46989 6.49438 -89.9209 13.8956 2.95344 -0.223758 2.22802 2.94072 -0.353642 -20.3334 2.88403 0.674979 -0.320743 2.88403 0.67498 96.6424 -54.5113 -90.1342 18.0749 -22.1539 6.53608 -169.919 -34.2992 -61.3318 -8.23124 4.23099 100.22 -99.6804 -56.5977 66.7399 -40.3841 16.6294 57.5667 7.90503 1.23479 -70.787 22.3913 1.09715 1.04973 -5.49043 -2.74271 8.55008 16.4249 -3.89064 -2.30538 
-278.718 95.7073 -277.744 64.1659 -50.1102 66.7184 -165.596 47.1973 84.5176 -38.5343 19.9074 -3.10316 46.795 -5.84195 1.67675 43.9321 14.0188 17.0414 46.0529 15.3518 121.13 73.7295 -74.7894 147.125 19.8302 12.1694 6.91383 1.84784 4.5657 -19.1856 1.68176 7.41483 -89.6327 12.0433 3.51674 0.347255 0.377041 3.52862 0.191941 -22.1916 3.24962 1.3892 -2.17893 3.24963 1.38921 95.3585 -45.265 -93.2318 25.9585 -20.7815 0.672523 -170.573 -37.6172 -67.7538 -6.23164 6.50593 97.0383 -99.3884 -50.1568 64.9454 -42.7637 14.0095 53.6724 5.71469 -0.769061 -71.9115 18.9449 0.677778 -0.329733 2.83108 -3.65993 6.37793 13.3646 -4.71044 -1.54284 
-271.594 97.2578 -271.178 64.7387 -48.9508 67.684 -166.478 42.3193 83.9419 -24.5996 18.0265 -3.11413 46.0937 -5.81861 0.991835 45.9772 15.8167 15.2305 67.3964 36.5062 139.265 -169.693 -68.4399 -83.9998 52.5562 -14.5706 -22.7629 8.88601 2.66307 -15.1634 1.77001 7.64983 -89.4988 11.5689 3.75586 0.611729 -0.0966534 3.77912 0.44559 -22.6679 3.39821 1.71343 -2.65529 3.39818 1.71343 96.27 -41.2573 -92.2758 29.5174 -21.5077 -0.934439 -171.29 -37.9746 -74.3287 -3.99504 7.80362 91.5425 -98.4856 -45.1664 64.4464 -45.2202 11.7832 50.7746 4.05958 -1.9243 -73.0635 19.571 0.261676 -2.5533 3.66606 -4.57078 3.55598 14.6019 -4.98571 0.0594887 
-265.116 97.6573 -265.103 65.1596 -47.8905 70.6985 -166.596 39.5659 84.6151 -18.0454 16.7697 -2.67698 44.5772 -6.5923 1.01497 46.8146 16.9994 17.0097 164.562 53.0477 94.373 -91.3198 -28.3011 -5.19746 97.4731 -22.3269 -7.47366 11.634 1.98105 -13.1576 1.63963 7.51219 -89.6326 11.8482 3.43337 0.365706 0.181763 3.44613 0.214053 -22.385 3.16458 1.38167 -2.37236 3.16459 1.38166 96.2079 -41.9026 -92.2913 29.5876 -23.8311 1.87732 -175.689 -35.6362 -83.1052 -3.64043 8.40133 93.921 -97.1617 -44.8931 66.3742 -43.7189 9.21014 49.0362 6.11649 -1.79093 -75.354 19.5096 0.589567 -0.866987 1.37191 -4.25802 1.17191 16.3542 -4.17502 0.854377 
-259.765 97.1876 -259.186 68.756 -46.9694 74.1811 -166.111 35.4215 84.5129 -17.9894 15.5979 -2.77685 43.6347 -6.70187 -1.90606 46.6042 17.0829 18.639 173.101 36.8915 92.2892 -88.2497 -15.5796 -5.94847 109.672 -20.2473 -4.89032 11.7301 1.53746 -11.1318 1.33844 7.61851 -89.6606 11.6348 2.82144 0.382219 -0.033059 2.8355 0.257571 -22.5891 2.57603 1.21304 -2.57649 2.57604 1.21304 95.4918 -43.8472 -93.221 29.2795 -23.4376 6.45673 -178.748 -29.2631 -90.218 -5.4488 5.66408 105.028 -97.0021 -47.7832 67.6277 -39.4014 7.37364 45.6355 7.64722 -1.59167 -77.13 22.306 0.703914 -0.718764 -1.21991 -3.59539 0.671882 17.9381 -3.65072 -0.230546 
